<?xml version="1.0" encoding="UTF-8"?>
<svg xmlns="http://www.w3.org/2000/svg" width="512" height="512" viewBox="0 0 256 256">
  <defs>
    <linearGradient id="skyGrad" x1="0" y1="0" x2="0" y2="1">
      <stop offset="0%" stop-color="#38bdf8"/>
      <stop offset="100%" stop-color="#0f172a"/>
    </linearGradient>
    <filter id="soft" x="-20%" y="-20%" width="140%" height="140%">
      <feGaussianBlur in="SourceAlpha" stdDeviation="2" result="blur"/>
      <feOffset dx="0" dy="1" result="off"/>
      <feMerge><feMergeNode in="off"/><feMergeNode in="SourceGraphic"/></feMerge>
    </filter>
  </defs>

  <!-- Background badge -->
  <circle cx="128" cy="128" r="120" fill="url(#skyGrad)"/>
  <circle cx="128" cy="128" r="120" fill="none" stroke="#0b1220" stroke-opacity="0.25" stroke-width="2"/>

  <!-- Matterhorn-style mountain silhouette -->
  <path d="M36 182 L86 102 L104 124 L132 94 L220 186 L36 186 Z"
        fill="#ffffff" fill-opacity="0.95" filter="url(#soft)"/>
  <!-- snow highlight ridge -->
  <path d="M86 102 L108 122 L132 94 L150 114" fill="none" stroke="#0f172a" stroke-opacity="0.12" stroke-width="4" stroke-linecap="round"/>

  <!-- IMAP waves (abstract signal lines) -->
  <path d="M54 196 C92 188, 164 188, 202 196" fill="none" stroke="#a5f3fc" stroke-opacity="0.45" stroke-width="3" stroke-linecap="round"/>
  <path d="M62 206 C100 198, 156 198, 194 206" fill="none" stroke="#a5f3fc" stroke-opacity="0.30" stroke-width="2.5" stroke-linecap="round"/>
  <path d="M70 214 C108 206, 148 206, 186 214" fill="none" stroke="#a5f3fc" stroke-opacity="0.20" stroke-width="2" stroke-linecap="round"/>

  <!-- Envelope for 'new mail' -->
  <rect x="80" y="116" width="96" height="64" rx="8" fill="#e2e8f0" stroke="#0f172a" stroke-opacity="0.18" stroke-width="2"/>
  <path d="M80 116 L128 148 L176 116" fill="none" stroke="#0f172a" stroke-opacity="0.28" stroke-width="2"/>
  <path d="M80 180 L116 150" fill="none" stroke="#0f172a" stroke-opacity="0.18" stroke-width="2"/>
  <path d="M176 180 L140 150" fill="none" stroke="#0f172a" stroke-opacity="0.18" stroke-width="2"/>

  <!-- Tiny CLI prompt hint -->
  <rect x="92" y="124" width="28" height="14" rx="3" fill="#0f172a" fill-opacity="0.85"/>
  <path d="M98 131 L107 126 L107 136 Z" fill="#38bdf8"/>
  <rect x="111" y="129" width="6" height="4" rx="1" fill="#38bdf8"/>

  <!-- Notification dot -->
  <circle cx="174" cy="114" r="11" fill="#ef4444" stroke="#ffffff" stroke-width="3"/>

  <!-- Title (hidden by default in icon) -->
  <title>go-cervino — IMAP notifier for Linux</title>
</svg>
